<svg xmlns="http://www.w3.org/2000/svg" width="30.718" height="31.453" viewBox="0 0 30.718 31.453"><defs><style>.a{fill:#fff;}</style></defs><path class="a" d="M66.693,39.448s0-.006,0-.01a.81.81,0,0,0-.007-.082v-.006a.783.783,0,0,0-.017-.084l0-.016a.8.8,0,0,0-.027-.08l0-.008c-.01-.024-.021-.048-.033-.071l-.007-.013a.8.8,0,0,0-.044-.07L66.539,39a.794.794,0,0,0-.052-.065h0a.8.8,0,0,0-.061-.06l-.013-.011a.777.777,0,0,0-.067-.051l0,0-.008,0a.766.766,0,0,0-.068-.04l-.01-.005c-.02-.01-.04-.019-.06-.027l-14.6-5.848a.794.794,0,0,0-.588,0L36.585,38.6c-.021.008-.041.018-.061.028l-.011.006a.772.772,0,0,0-.071.042l-.006,0,0,0a.79.79,0,0,0-.069.053l-.013.011a.78.78,0,0,0-.061.06l-.008.009q-.027.03-.05.063l-.007.009a.794.794,0,0,0-.044.072l-.008.015a.805.805,0,0,0-.035.077l0,.009a.8.8,0,0,0-.025.077l0,.012a.777.777,0,0,0-.016.084l0,.017a.78.78,0,0,0-.005.085v0h0v6.036a.793.793,0,0,0,.5.739l.324.127V57.993a.793.793,0,0,0,.5.736l13.581,5.489.005,0c.022.009.044.016.066.023l.009,0,.058.014.022,0,.049.007.021,0c.023,0,.045,0,.068,0h0c.023,0,.046,0,.069,0l.021,0,.051-.007.021,0c.022,0,.044-.01.066-.016h0c.022-.007.044-.015.066-.024l.008,0L65.1,58.609a.793.793,0,0,0,.489-.733V46.114l.713-.285a.793.793,0,0,0,.5-.752ZM37.671,44.833V40.519l12.741,5.2.03,3.7,0,.4-1.976-.762Zm27.534-.273L52.032,49.821,52,45.728l13.13-5.112ZM51.293,34.47l12.446,4.984L51.208,44.333,39,39.349ZM38.5,46.906l9.4,3.624,2.6,1.015v10.76L38.5,57.458ZM64,57.346,52.08,62.294V51.526L64,46.779Z" transform="translate(-36.084 -32.823)"/></svg>