<svg xmlns="http://www.w3.org/2000/svg" width="27.783" height="35.788" viewBox="0 0 27.783 35.788"><defs><style>.a{fill:#fff;}</style></defs><g transform="translate(-85.377 -53.262)"><path class="a" d="M282.795,309.445l-2.215-7.089a6.056,6.056,0,1,0-10.237.061l-2.2,7.028a.715.715,0,0,0,1.015.847l2.259-1.184,1.176,2.244a.715.715,0,0,0,.633.383l.064,0a.715.715,0,0,0,.618-.5l1.558-4.988,1.558,4.988a.715.715,0,0,0,.619.5l.064,0a.715.715,0,0,0,.633-.383l1.175-2.244,2.259,1.184a.715.715,0,0,0,1.015-.847Zm-7.353-14.77a4.482,4.482,0,1,1-4.482,4.482A4.487,4.487,0,0,1,275.442,294.674Zm-2.38,14.484-.706-1.348a.715.715,0,0,0-.965-.3l-1.363.714,1.414-4.526a6.037,6.037,0,0,0,2.886,1.411Zm6.489-1.649a.715.715,0,0,0-.965.3l-.706,1.348-1.269-4.061a6.041,6.041,0,0,0,2.877-1.44l1.426,4.566Z" transform="translate(-169.668 -222.685)"/><path class="a" d="M96.293,78.927c-2.148-.015-4.295-.006-6.443-.006-1.735,0-2.373-.644-2.373-2.389V67.748q-.006-5.014,0-10.028c0-1.686.622-2.311,2.274-2.311,3.173,0,6.344.011,9.517-.009a2.2,2.2,0,0,1,1.7.685q1.819,1.855,3.675,3.675a2.213,2.213,0,0,1,.7,1.7c-.013,1.776,0,3.558,0,5.339,0,.906.352,1.382,1.035,1.392s1.082-.47,1.082-1.355c.009-1.83.016-3.66,0-5.49a4.068,4.068,0,0,0-1.268-3.01c-1.278-1.239-2.534-2.5-3.78-3.776a4.082,4.082,0,0,0-3.08-1.274c-3.221.01-6.443,0-9.664,0a3.926,3.926,0,0,0-4.276,4.274v9.589c0,3.269-.011,6.539,0,9.824q0,.043-.005.086a3.734,3.734,0,0,0,3.556,3.9c2.479.153,4.974.088,7.46.05a1.354,1.354,0,0,0,.952-.642C97.748,79.646,97.2,78.934,96.293,78.927Z"/><path class="a" d="M157.7,173.128h-5.417c-1.854,0-3.71-.006-5.568,0-.778,0-1.237.4-1.232,1.036s.471,1.043,1.244,1.043q5.491.009,10.981,0c.84,0,1.267-.392,1.251-1.09C158.941,173.465,158.531,173.128,157.7,173.128Z" transform="translate(-55.804 -111.291)"/><path class="a" d="M159,234.079c0-.671-.4-1.011-1.225-1.011h-5.488c-1.854,0-3.708,0-5.56,0-.724,0-1.182.387-1.2.985a1.074,1.074,0,0,0,1.211,1.074q5.524.012,11.048,0C158.581,235.125,159,234.749,159,234.079Z" transform="translate(-55.844 -166.944)"/><path class="a" d="M152.166,292.449q-2.777-.02-5.55,0a1.045,1.045,0,0,0-1.138,1.058c.016.6.47.993,1.189,1,.9.006,1.8,0,2.7,0,.925,0,1.85.008,2.774,0l.049,0a1.032,1.032,0,1,0-.027-2.059Z" transform="translate(-55.803 -222.071)"/></g></svg>