<svg xmlns="http://www.w3.org/2000/svg" width="24.994" height="27.261" viewBox="0 0 24.994 27.261"><defs><style>.a{fill:#fff;}</style></defs><g transform="translate(6.408 -312.606)"><path class="a" d="M18.556,323.353a15.72,15.72,0,0,1-1.234,7.362,15.968,15.968,0,0,1-10.038,8.957,3.9,3.9,0,0,1-2.435,0A15.792,15.792,0,0,1-6.4,324.558c.048-1.592.013-3.186.006-4.779a3.626,3.626,0,0,1,2.317-3.592q3.772-1.628,7.607-3.108a7.273,7.273,0,0,1,5.453.122c2.362.944,4.72,1.9,7.063,2.887a3.8,3.8,0,0,1,2.513,3.778C18.552,320.872,18.556,321.876,18.556,323.353Zm-2.095-.624q0-1.322,0-2.645a1.919,1.919,0,0,0-1.424-2.131q-3.389-1.4-6.783-2.779a5.274,5.274,0,0,0-4.013-.121c-2.479.973-4.94,1.993-7.4,3.026a1.757,1.757,0,0,0-1.153,1.784c.028,1.567.052,3.136,0,4.7A13.691,13.691,0,0,0,5.3,337.568a2.746,2.746,0,0,0,1.545,0,13.77,13.77,0,0,0,8.434-7.456A14.86,14.86,0,0,0,16.461,322.729Z" transform="translate(0 0)"/><path class="a" d="M46.342,385.115c1.5-1.5,2.934-2.941,4.372-4.369.188-.186.419-.472.624-.467a2.01,2.01,0,0,1,1.178.327.9.9,0,0,1,.028,1.266,2.539,2.539,0,0,1-.294.326q-2.463,2.465-4.929,4.927a1.179,1.179,0,0,1-1.95,0q-1.41-1.391-2.8-2.8c-.586-.594-.644-1.208-.187-1.677s1.081-.427,1.671.157C44.814,383.553,45.56,384.322,46.342,385.115Z" transform="translate(-41.354 -57.719)"/></g></svg>