<svg xmlns="http://www.w3.org/2000/svg" width="40.453" height="27.941" viewBox="0 0 40.453 27.941"><defs><style>.a{fill:#fff;}</style></defs><g transform="translate(30.131 -95.092)"><path class="a" d="M219.629,237.165l-3.785-5.845a1.722,1.722,0,0,0-1.454-.793H206.8a10.809,10.809,0,0,1,1.089,4.742c0,.172,0,.342-.012.512l1.035,1.6h-1.229a10.773,10.773,0,0,1-.468,1.662h2.1l-3.282,10.651-1.911-6.2a10.889,10.889,0,0,1-1.416,1.035l1.689,5.482-3.949-4.432a10.792,10.792,0,0,1-1.839.434l6.128,6.88a1.737,1.737,0,0,0,2.594,0l12.139-13.629A1.745,1.745,0,0,0,219.629,237.165Zm-12.1-4.977h5.813l-2.905,4.493Zm.147,17.82,3.38-10.967h6.391Zm4.291-12.629,2.911-4.5,2.915,4.5Z" transform="translate(-209.584 -130.437)"/><g transform="translate(-22.399 95.092)"><path class="a" d="M72.031,190.52a9.835,9.835,0,1,1,9.835-9.835A9.846,9.846,0,0,1,72.031,190.52Zm0-17.734a7.9,7.9,0,1,0,7.9,7.9A7.908,7.908,0,0,0,72.031,172.787Z" transform="translate(-62.196 -170.851)"/></g><g transform="translate(-30.132 109.939)"><path class="a" d="M-29.163,359.417a.965.965,0,0,1-.709-.309.968.968,0,0,1,.05-1.368l10.059-9.356a.968.968,0,0,1,1.368.05.968.968,0,0,1-.049,1.368L-28.5,359.158A.964.964,0,0,1-29.163,359.417Z" transform="translate(30.132 -348.125)"/></g><g transform="translate(-17.428 98.962)"><path class="a" d="M122.522,220.467a.968.968,0,0,1-.556-1.761,8.174,8.174,0,0,1,4.534-1.642,7.158,7.158,0,0,1,4.512,1.62.968.968,0,1,1-1.175,1.538c-2.173-1.66-4.322-1.638-6.761.07A.963.963,0,0,1,122.522,220.467Z" transform="translate(-121.553 -217.063)"/></g></g></svg>