<svg xmlns="http://www.w3.org/2000/svg" width="226" height="226" viewBox="0 0 226 226">
  <g id="Gruppe_1" data-name="Gruppe 1" transform="translate(0 -140)">
    <g id="Rechteck_2" data-name="Rechteck 2" transform="translate(0 140)" stroke="#707070" stroke-width="1">
      <rect width="226" height="226" stroke="none"/>
      <rect x="0.5" y="0.5" width="225" height="225" fill="none"/>
    </g>
    <g id="Logo" transform="translate(-110.055 186.854)">
      <g id="Uhr">
        <g id="Band1">
          <path id="Pfad_1" data-name="Pfad 1" d="M183.837,34.287c-4.871,4.655-13,15.042-13,15.042s-2.359,26.449-.176,40.181a96.8,96.8,0,0,0,15.165,17.325L173.014,103.1l-17.959-9.282.256-48.956,16.934-8.037,11.592-2.538Z" fill="#fff" fill-rule="evenodd"/>
          <path id="Pfad_2" data-name="Pfad 2" d="M260.972,106.721c4.942-4.579,14.161-16.061,14.161-16.061s3-26.468,1.033-40.232A96.855,96.855,0,0,0,261.272,32.87L274.026,36.8l17.813,9.56-1.307,49.76L273.475,103.9l-12.5,2.823Z" fill="#fff" fill-rule="evenodd"/>
        </g>
        <g id="Watchface">
          <path id="Pfad_3" data-name="Pfad 3" d="M242.817,22.771a266.568,266.568,0,0,1,27.725,27.752,266.671,266.671,0,0,1-.019,39.227,266.67,266.67,0,0,1-27.752,27.725,266.689,266.689,0,0,1-39.228-.019A266.659,266.659,0,0,1,175.819,89.7a266.689,266.689,0,0,1,.019-39.228A266.561,266.561,0,0,1,203.59,22.752a266.674,266.674,0,0,1,39.227.019Zm-3.465,8.355A219.533,219.533,0,0,1,262.184,53.98a219.5,219.5,0,0,1-.016,32.305,219.629,219.629,0,0,1-22.854,22.832,219.636,219.636,0,0,1-32.3-.016,219.63,219.63,0,0,1-22.832-22.854,219.5,219.5,0,0,1,.016-32.305A219.532,219.532,0,0,1,207.047,31.11a219.5,219.5,0,0,1,32.305.016Z" fill="#fff" fill-rule="evenodd"/>
          <g id="Uhrenzeiger-v2">
            <path id="Pfad_4" data-name="Pfad 4" d="M222.492,67.465a2.747,2.747,0,1,1-2,3.331A2.748,2.748,0,0,1,222.492,67.465Z" fill="#fff" fill-rule="evenodd"/>
            <path id="Pfad_5" data-name="Pfad 5" d="M247.427,57.927l.844,1.845-.486,1.435L224.066,72.049l-1.76-3.852,23.718-10.842,1.4.572ZM224.065,72.05l-1.425-.562-.844-1.844L222.3,68.2Z" fill="#fff" fill-rule="evenodd"/>
            <path id="Pfad_6" data-name="Pfad 6" d="M224.092,68.226l.471,1.674-.705,1.465-1.6.675ZM192.408,57.661l-.472-1.673.706-1.466,1.6-.674.008-.017L224.1,68.209l-1.837,3.814L192.416,57.644l-.008.017Z" fill="#fff" fill-rule="evenodd"/>
          </g>
          <path id="Krone" d="M228.287,19.065l-.612-5.135a13.257,13.257,0,0,0-8.989,0l-.612,5.135Z" fill="#fff" stroke="#fff" stroke-linecap="round" stroke-linejoin="round" stroke-miterlimit="1.5" stroke-width="0.05" fill-rule="evenodd"/>
        </g>
      </g>
    </g>
  </g>
</svg>
